<svg xmlns="http://www.w3.org/2000/svg" viewBox="0 0 1040 660" role="img" aria-labelledby="title desc">
<title id="title">Direct Fig. 1 reproduction from real input data</title>
<desc id="desc">Doping-dependent plasmon-phonon hybrid energy for n-doped GaAs, rendered only from real Wannier/RPA input tables and explicitly marked experimental or paper-digitized comparison points.</desc>
<rect width="100%" height="100%" fill="#ffffff"/>
<defs><clipPath id="plot-clip"><rect x="86" y="54" width="918" height="518"/></clipPath></defs>
<rect x="86" y="54" width="918" height="518" fill="#f8fafc" stroke="#cfd8e3"/>
<line x1="86" x2="1004" y1="572.00" y2="572.00" stroke="#dce3eb" stroke-width="1"/>
<text x="76" y="576.00" text-anchor="end" font-family="system-ui,Segoe UI,sans-serif" font-size="12" fill="#56616d">0</text>
<line x1="86" x2="1004" y1="468.40" y2="468.40" stroke="#dce3eb" stroke-width="1"/>
<text x="76" y="472.40" text-anchor="end" font-family="system-ui,Segoe UI,sans-serif" font-size="12" fill="#56616d">20</text>
<line x1="86" x2="1004" y1="364.80" y2="364.80" stroke="#dce3eb" stroke-width="1"/>
<text x="76" y="368.80" text-anchor="end" font-family="system-ui,Segoe UI,sans-serif" font-size="12" fill="#56616d">40</text>
<line x1="86" x2="1004" y1="261.20" y2="261.20" stroke="#dce3eb" stroke-width="1"/>
<text x="76" y="265.20" text-anchor="end" font-family="system-ui,Segoe UI,sans-serif" font-size="12" fill="#56616d">60</text>
<line x1="86" x2="1004" y1="157.60" y2="157.60" stroke="#dce3eb" stroke-width="1"/>
<text x="76" y="161.60" text-anchor="end" font-family="system-ui,Segoe UI,sans-serif" font-size="12" fill="#56616d">80</text>
<line x1="86" x2="1004" y1="54.00" y2="54.00" stroke="#dce3eb" stroke-width="1"/>
<text x="76" y="58.00" text-anchor="end" font-family="system-ui,Segoe UI,sans-serif" font-size="12" fill="#56616d">100</text>
<line x1="86.00" x2="86.00" y1="54" y2="572" stroke="#eef2f6" stroke-width="1"/>
<text x="86.00" y="597" text-anchor="middle" font-family="system-ui,Segoe UI,sans-serif" font-size="12" fill="#24313d">0.0</text>
<line x1="348.29" x2="348.29" y1="54" y2="572" stroke="#eef2f6" stroke-width="1"/>
<text x="348.29" y="597" text-anchor="middle" font-family="system-ui,Segoe UI,sans-serif" font-size="12" fill="#24313d">0.5</text>
<line x1="610.57" x2="610.57" y1="54" y2="572" stroke="#eef2f6" stroke-width="1"/>
<text x="610.57" y="597" text-anchor="middle" font-family="system-ui,Segoe UI,sans-serif" font-size="12" fill="#24313d">1.0</text>
<line x1="872.86" x2="872.86" y1="54" y2="572" stroke="#eef2f6" stroke-width="1"/>
<text x="872.86" y="597" text-anchor="middle" font-family="system-ui,Segoe UI,sans-serif" font-size="12" fill="#24313d">1.5</text>
<line x1="109.46" x2="109.46" y1="54" y2="572" stroke="#6b7280" stroke-width="1.2" stroke-dasharray="2 5"/>
<line x1="86" x2="1004" y1="404.86" y2="404.86" stroke="#cc3b31" stroke-width="1.7" stroke-dasharray="7 5"/>
<polyline points="91.25,549.92 102.66,547.54 114.06,543.31 125.47,537.94 136.88,531.93 148.29,525.57 159.70,519.04 171.11,512.44 182.52,505.87 193.93,499.36 205.34,492.95 216.75,486.70 228.16,480.62 239.57,474.74 250.98,469.10 262.39,463.72 273.80,458.63 285.21,453.84 296.62,449.37 308.02,445.25 319.43,441.47 330.84,438.03 342.25,434.94 353.66,432.16 365.07,429.69 376.48,427.50 387.89,425.56 399.30,423.85 410.71,422.33 422.12,420.99 433.53,419.80 444.94,418.74 456.35,417.80 467.76,416.96 479.17,416.20 490.58,415.52 501.99,414.91 513.39,414.35 524.80,413.85 536.21,413.39 547.62,412.97 559.03,412.59 570.44,412.23 581.85,411.91 593.26,411.61 604.67,411.33 616.08,411.07 627.49,410.83 638.90,410.61 650.31,410.40 661.72,410.20 673.13,410.02 684.54,409.85 695.95,409.69 707.35,409.54 718.76,409.40 730.17,409.26 741.58,409.14 752.99,409.02 764.40,408.91 775.81,408.80 787.22,408.70 798.63,408.60 810.04,408.51 821.45,408.43 832.86,408.35 844.27,408.27 855.68,408.20 867.09,408.13 878.50,408.06 889.91,408.00 901.32,407.94 912.72,407.89 924.13,407.84 935.54,407.79 946.95,407.75 958.36,407.70 969.77,407.66 981.18,407.63 992.59,407.59 1004.00,407.56" fill="none" stroke="#111827" stroke-width="2.2" stroke-linejoin="round" stroke-linecap="round" clip-path="url(#plot-clip)"/>
<polyline points="91.25,389.08 102.66,389.02 114.06,388.89 125.47,388.70 136.88,388.44 148.29,388.10 159.70,387.69 171.11,387.19 182.52,386.61 193.93,385.91 205.34,385.11 216.75,384.18 228.16,383.11 239.57,381.89 250.98,380.49 262.39,378.90 273.80,377.09 285.21,375.05 296.62,372.77 308.02,370.23 319.43,367.42 330.84,364.35 342.25,361.03 353.66,357.46 365.07,353.67 376.48,349.68 387.89,345.51 399.30,341.20 410.71,336.77 422.12,332.23 433.53,327.61 444.94,322.94 456.35,318.21 467.76,313.46 479.17,308.68 490.58,303.89 501.99,299.10 513.39,294.31 524.80,289.53 536.21,284.76 547.62,280.01 559.03,275.28 570.44,270.58 581.85,265.90 593.26,261.26 604.67,256.64 616.08,252.05 627.49,247.50 638.90,242.99 650.31,238.50 661.72,234.06 673.13,229.66 684.54,225.29 695.95,220.96 707.35,216.68 718.76,212.44 730.17,208.24 741.58,204.09 752.99,199.98 764.40,195.93 775.81,191.92 787.22,187.97 798.63,184.07 810.04,180.23 821.45,176.45 832.86,172.74 844.27,169.09 855.68,165.52 867.09,162.02 878.50,158.59 889.91,155.26 901.32,152.01 912.72,148.86 924.13,145.81 935.54,142.87 946.95,140.05 958.36,137.35 969.77,134.78 981.18,132.35 992.59,130.08 1004.00,127.96" fill="none" stroke="#111827" stroke-width="2.2" stroke-linejoin="round" stroke-linecap="round" clip-path="url(#plot-clip)"/>
<polyline points="91.25,389.76 102.66,392.73 114.06,396.19 125.47,398.78 136.88,400.50 148.29,401.63 159.70,402.38 171.11,402.90 182.52,403.27 193.93,403.55 205.34,403.75 216.75,403.91 228.16,404.04 239.57,404.14 250.98,404.22 262.39,404.28 273.80,404.34 285.21,404.39 296.62,404.43 308.02,404.46 319.43,404.49 330.84,404.52 342.25,404.54 353.66,404.56 365.07,404.58 376.48,404.60 387.89,404.61 399.30,404.62 410.71,404.64 422.12,404.65 433.53,404.66 444.94,404.67 456.35,404.68 467.76,404.68 479.17,404.69 490.58,404.70 501.99,404.70 513.39,404.71 524.80,404.72 536.21,404.72 547.62,404.73 559.03,404.73 570.44,404.73 581.85,404.74 593.26,404.74 604.67,404.75 616.08,404.75 627.49,404.75 638.90,404.76 650.31,404.76 661.72,404.76 673.13,404.76 684.54,404.77 695.95,404.77 707.35,404.77 718.76,404.77 730.17,404.78 741.58,404.78 752.99,404.78 764.40,404.78 775.81,404.78 787.22,404.78 798.63,404.79 810.04,404.79 821.45,404.79 832.86,404.79 844.27,404.79 855.68,404.79 867.09,404.79 878.50,404.80 889.91,404.80 901.32,404.80 912.72,404.80 924.13,404.80 935.54,404.80 946.95,404.80 958.36,404.80 969.77,404.80 981.18,404.81 992.59,404.81 1004.00,404.81" fill="none" stroke="#2f67b1" stroke-width="2.0" stroke-linejoin="round" stroke-linecap="round" clip-path="url(#plot-clip)" stroke-dasharray="8 4 2 4"/>
<polyline points="91.25,547.83 102.66,545.22 114.06,540.57 125.47,534.64 136.88,527.99 148.29,520.91 159.70,513.60 171.11,506.15 182.52,498.64 193.93,491.12 205.34,483.61 216.75,476.14 228.16,468.73 239.57,461.38 250.98,454.10 262.39,446.90 273.80,439.79 285.21,432.76 296.62,425.83 308.02,418.98 319.43,412.23 330.84,405.56 342.25,398.99 353.66,392.50 365.07,386.11 376.48,379.79 387.89,373.56 399.30,367.42 410.71,361.35 422.12,355.37 433.53,349.46 444.94,343.62 456.35,337.86 467.76,332.17 479.17,326.55 490.58,320.99 501.99,315.50 513.39,310.08 524.80,304.72 536.21,299.42 547.62,294.18 559.03,289.00 570.44,283.88 581.85,278.81 593.26,273.80 604.67,268.84 616.08,263.94 627.49,259.09 638.90,254.30 650.31,249.56 661.72,244.87 673.13,240.23 684.54,235.64 695.95,231.11 707.35,226.63 718.76,222.20 730.17,217.82 741.58,213.50 752.99,209.24 764.40,205.03 775.81,200.88 787.22,196.79 798.63,192.76 810.04,188.80 821.45,184.90 832.86,181.07 844.27,177.31 855.68,173.63 867.09,170.03 878.50,166.52 889.91,163.09 901.32,159.76 912.72,156.53 924.13,153.40 935.54,150.39 946.95,147.50 958.36,144.74 969.77,142.11 981.18,139.63 992.59,137.30 1004.00,135.14" fill="none" stroke="#25814f" stroke-width="1.9" stroke-linejoin="round" stroke-linecap="round" clip-path="url(#plot-clip)" stroke-dasharray="7 5"/>
<circle cx="91.25" cy="383.45" r="4.3" fill="#ffffff" stroke="#111827" stroke-width="1.4" clip-path="url(#plot-clip)"/>
<circle cx="180.42" cy="382.93" r="4.3" fill="#ffffff" stroke="#111827" stroke-width="1.4" clip-path="url(#plot-clip)"/>
<circle cx="264.35" cy="381.89" r="4.3" fill="#ffffff" stroke="#111827" stroke-width="1.4" clip-path="url(#plot-clip)"/>
<circle cx="290.58" cy="505.70" r="4.3" fill="#ffffff" stroke="#111827" stroke-width="1.4" clip-path="url(#plot-clip)"/>
<circle cx="374.51" cy="458.04" r="4.3" fill="#ffffff" stroke="#111827" stroke-width="1.4" clip-path="url(#plot-clip)"/>
<circle cx="374.51" cy="380.86" r="4.3" fill="#ffffff" stroke="#111827" stroke-width="1.4" clip-path="url(#plot-clip)"/>
<circle cx="421.73" cy="442.50" r="4.3" fill="#ffffff" stroke="#111827" stroke-width="1.4" clip-path="url(#plot-clip)"/>
<circle cx="453.20" cy="372.57" r="4.3" fill="#ffffff" stroke="#111827" stroke-width="1.4" clip-path="url(#plot-clip)"/>
<circle cx="463.69" cy="428.00" r="4.3" fill="#ffffff" stroke="#111827" stroke-width="1.4" clip-path="url(#plot-clip)"/>
<circle cx="521.39" cy="354.44" r="4.3" fill="#ffffff" stroke="#111827" stroke-width="1.4" clip-path="url(#plot-clip)"/>
<circle cx="531.89" cy="421.78" r="4.3" fill="#ffffff" stroke="#111827" stroke-width="1.4" clip-path="url(#plot-clip)"/>
<circle cx="579.10" cy="337.86" r="4.3" fill="#ffffff" stroke="#111827" stroke-width="1.4" clip-path="url(#plot-clip)"/>
<circle cx="584.34" cy="416.60" r="4.3" fill="#ffffff" stroke="#111827" stroke-width="1.4" clip-path="url(#plot-clip)"/>
<circle cx="626.31" cy="412.97" r="4.3" fill="#ffffff" stroke="#111827" stroke-width="1.4" clip-path="url(#plot-clip)"/>
<circle cx="626.31" cy="323.36" r="4.3" fill="#ffffff" stroke="#111827" stroke-width="1.4" clip-path="url(#plot-clip)"/>
<circle cx="694.50" cy="409.87" r="4.3" fill="#ffffff" stroke="#111827" stroke-width="1.4" clip-path="url(#plot-clip)"/>
<circle cx="694.50" cy="303.68" r="4.3" fill="#ffffff" stroke="#111827" stroke-width="1.4" clip-path="url(#plot-clip)"/>
<circle cx="757.45" cy="295.91" r="4.3" fill="#ffffff" stroke="#111827" stroke-width="1.4" clip-path="url(#plot-clip)"/>
<circle cx="820.40" cy="407.28" r="4.3" fill="#ffffff" stroke="#111827" stroke-width="1.4" clip-path="url(#plot-clip)"/>
<circle cx="830.89" cy="261.20" r="4.3" fill="#ffffff" stroke="#111827" stroke-width="1.4" clip-path="url(#plot-clip)"/>
<circle cx="962.03" cy="405.20" r="4.3" fill="#ffffff" stroke="#111827" stroke-width="1.4" clip-path="url(#plot-clip)"/>
<circle cx="962.03" cy="224.94" r="4.3" fill="#ffffff" stroke="#111827" stroke-width="1.4" clip-path="url(#plot-clip)"/>
<text x="86" y="30" font-family="system-ui,Segoe UI,sans-serif" font-size="18" font-weight="700" fill="#17212b">Direct Fig. 1 reproduction: n-doped GaAs</text>
<text x="86" y="618" font-family="system-ui,Segoe UI,sans-serif" font-size="13" fill="#24313d">q = 8e-4 Angstrom^-1 along [110], T = 300 K. This renderer refuses toy, Drude, or Lindhard-surrogate inputs.</text>
<text x="86" y="642" font-family="system-ui,Segoe UI,sans-serif" font-size="12" fill="#56616d">Vertical dotted line: q_TF=q at n=2.00e+15 cm^-3. Horizontal red line: TO phonon energy.</text>
<text transform="translate(22 313.0) rotate(-90)" text-anchor="middle" font-family="system-ui,Segoe UI,sans-serif" font-size="13" fill="#24313d">Energy (meV)</text>
<text x="545.0" y="606" text-anchor="middle" font-family="system-ui,Segoe UI,sans-serif" font-size="13" fill="#24313d">sqrt(n [cm^-3]) / 10^9</text>
<rect x="685" y="70" width="315" height="144" rx="6" fill="#ffffff" stroke="#d3dbe5"/>
<line x1="699" x2="727" y1="94" y2="94" stroke="#111827" stroke-width="3"/>
<text x="739" y="98" font-family="system-ui,Segoe UI,sans-serif" font-size="12" fill="#24313d">nonadiabatic pl-ph</text>
<line x1="699" x2="727" y1="118" y2="118" stroke="#2f67b1" stroke-width="3" stroke-dasharray="8 4 2 4"/>
<text x="739" y="122" font-family="system-ui,Segoe UI,sans-serif" font-size="12" fill="#24313d">static approximation</text>
<line x1="699" x2="727" y1="142" y2="142" stroke="#25814f" stroke-width="3" stroke-dasharray="7 5"/>
<text x="739" y="146" font-family="system-ui,Segoe UI,sans-serif" font-size="12" fill="#24313d">bare plasmon</text>
<line x1="699" x2="727" y1="166" y2="166" stroke="#cc3b31" stroke-width="3" stroke-dasharray="7 5"/>
<text x="739" y="170" font-family="system-ui,Segoe UI,sans-serif" font-size="12" fill="#24313d">TO phonon</text>
<circle cx="713" cy="190" r="4.3" fill="#ffffff" stroke="#111827" stroke-width="1.4"/>
<text x="739" y="194" font-family="system-ui,Segoe UI,sans-serif" font-size="12" fill="#24313d">Digitized Ref. [8] approx.</text>
</svg>
